<svg width="556" height="579" viewBox="0 0 556 579" fill="none" xmlns="http://www.w3.org/2000/svg">
<path d="M198.682 11.9859C108.126 18.6929 31.1435 24.861 27.5241 25.5833C17.3758 27.3948 8.14383 34.2852 3.80274 43.354L0 51.3336L0.366529 241.514L0.90487 431.695L6.70062 443.481C9.96502 450.004 32.0599 480.467 56.1477 511.823C103.785 573.642 107.221 577.093 125.33 578.905C130.588 579.444 170.07 577.632 212.816 575.098C255.746 572.381 324.562 568.208 365.865 565.858C542.269 555.138 533.209 556.044 543.346 547.342C556.025 536.828 555.12 554.049 555.659 322.904C556.025 126.922 555.842 114.058 552.944 108.074C549.508 101.367 543.346 96.6546 462.927 40.0865C409.139 2.37827 405.336 0.383369 381.236 0.0164906C371.283 -0.338923 289.054 5.09546 198.682 11.9859Z" fill="white"/>
<path d="M39.9403 39.4107L39.9403 39.4106C30.4263 41.1066 21.7715 47.5618 17.7076 56.0397C17.7075 56.0399 17.7074 56.04 17.7073 56.0402L14.1356 63.525L14.4838 243.91L14.4838 243.911L14.995 424.294L20.4578 435.388C20.458 435.389 20.4581 435.389 20.4582 435.389C21.219 436.907 23.0957 439.851 25.8605 443.9C28.6197 447.941 32.2478 453.062 36.4956 458.92C44.9909 470.637 55.96 485.301 67.4031 500.177C90.0475 529.523 102.158 544.977 110.756 553.317C115.047 557.479 118.44 559.846 121.809 561.284C125.18 562.722 128.557 563.245 132.851 563.674L132.852 563.674C134.067 563.798 137.317 563.788 142.183 563.661C147.034 563.535 153.458 563.293 160.998 562.959C176.077 562.293 195.61 561.262 215.919 560.06M39.9403 39.4107L361.359 551.291C322.109 553.521 256.715 557.481 215.919 560.06M39.9403 39.4107L39.9488 39.409M39.9403 39.4107L39.9488 39.409M215.919 560.06L215.944 560.485L215.917 560.06C215.918 560.06 215.919 560.06 215.919 560.06ZM39.9488 39.409C40.3516 39.3287 41.8418 39.1644 44.3528 38.925C46.8483 38.6871 50.3227 38.3775 54.6655 38.0053C63.3507 37.2608 75.5057 36.266 90.2429 35.0936C119.717 32.749 159.518 29.6944 202.544 26.512L202.513 26.0914L202.545 26.5119C245.483 23.2425 286.486 20.3185 317.937 18.2541C349.405 16.1885 371.273 14.9862 375.975 15.1538V15.1539M39.9488 39.409L375.975 15.1539M375.975 15.1539L375.984 15.1541L375.975 15.1539ZM538.779 117.466C538.78 117.467 538.781 117.468 538.781 117.47L539.16 117.276L538.777 117.461C538.778 117.463 538.779 117.464 538.779 117.466ZM464.074 96.4982L464.067 96.4914L464.06 96.4848C460.165 92.9305 444.99 81.9414 429.919 71.4538C422.377 66.2048 414.849 61.0737 408.754 57.0501C402.675 53.0375 397.983 50.1005 396.138 49.2671L395.963 49.6546L396.136 49.2662C390.466 46.7384 383.08 45.4486 369.595 45.3846C356.108 45.3205 336.472 46.4835 306.274 48.8934L306.273 48.8935C278.389 51.1347 232.61 54.5727 204.726 56.4658L204.725 56.4659C131.838 61.7097 95.68 64.3327 77.7473 66.3767C73.2628 66.8879 69.9097 67.3638 67.403 67.8368C64.9018 68.3087 63.2188 68.7821 62.0889 69.2973C60.9514 69.816 60.3273 70.3989 60.0188 71.1105C59.7467 71.7382 59.7487 72.4204 59.7506 73.0712C59.7508 73.1251 59.7509 73.1788 59.7509 73.2322C59.7509 73.4215 59.8388 73.6025 59.9144 73.7342C60.0001 73.8834 60.1197 74.0515 60.264 74.2335C60.5536 74.5989 60.9723 75.0577 61.499 75.5946C62.5543 76.6705 64.0728 78.0899 65.9345 79.7557C69.6596 83.0887 74.7791 87.426 80.3638 92.0085C91.5303 101.171 104.58 111.333 112.085 116.42L112.088 116.422C115.749 118.869 122.174 121.472 126.537 122.167L126.543 122.168C126.873 122.217 127.51 122.239 128.4 122.242C129.302 122.246 130.493 122.231 131.952 122.197C134.871 122.13 138.873 121.991 143.8 121.789C153.655 121.385 167.216 120.731 183.23 119.901C215.258 118.24 257.099 115.874 298.719 113.401C340.339 110.928 381.74 108.347 412.886 106.255C428.459 105.209 441.469 104.285 450.663 103.558C455.259 103.195 458.903 102.88 461.438 102.624C462.704 102.496 463.698 102.382 464.396 102.284C464.744 102.234 465.025 102.188 465.233 102.145C465.336 102.123 465.428 102.1 465.505 102.076C465.56 102.059 465.678 102.021 465.771 101.941L465.783 101.931L465.794 101.92C466.461 101.253 466.536 100.374 466.196 99.4498C465.864 98.5472 465.125 97.5486 464.074 96.4982ZM505.502 155.239L505.501 155.227C504.806 150.696 502.71 145.956 500.222 143.468L500.171 143.418C498.894 142.142 497.877 141.124 495.484 140.477C493.108 139.834 489.375 139.552 482.622 139.628C469.204 139.78 443.672 141.351 392.689 144.489L391.486 144.563C378.159 145.352 361.802 146.335 344.113 147.398C303.998 149.808 257.028 152.63 222.985 154.54L222.983 154.541C188.045 156.602 165.492 158.063 151.286 159.267C144.183 159.869 139.159 160.408 135.713 160.926C133.99 161.185 132.653 161.441 131.645 161.699C130.653 161.953 129.94 162.218 129.489 162.516C128.288 163.253 127.044 164.69 125.979 166.341C124.906 168.005 123.984 169.934 123.454 171.696L123.454 171.697C123.265 172.332 123.107 173.698 122.967 175.769C122.825 177.861 122.699 180.72 122.588 184.379C122.366 191.699 122.204 202.236 122.096 216.27C121.88 244.338 121.88 286.406 122.054 344.73L122.565 510.926L122.566 511.092L122.678 511.214L126.815 515.685L126.82 515.692L126.826 515.697C128.06 516.931 129.812 518.241 131.663 519.349C133.511 520.456 135.485 521.38 137.169 521.824C137.326 521.868 137.554 521.897 137.822 521.919C138.104 521.941 138.463 521.959 138.894 521.971C139.758 521.995 140.926 521.998 142.378 521.984C145.282 521.954 149.332 521.85 154.363 521.68C164.425 521.34 178.42 520.739 195.036 519.95C228.268 518.372 271.991 516.044 315.718 513.56C359.445 511.075 403.178 508.435 436.431 506.233C453.057 505.132 467.065 504.14 477.142 503.332C482.181 502.928 486.239 502.57 489.152 502.267C490.608 502.115 491.782 501.977 492.65 501.853C493.083 501.792 493.445 501.733 493.729 501.677C493.995 501.625 494.22 501.571 494.374 501.511C495.737 501.056 497.288 500.075 498.704 498.876C500.128 497.672 501.448 496.221 502.336 494.801C503.122 493.6 503.691 492.079 504.129 488.118C504.567 484.156 504.88 477.697 505.116 466.579C505.59 444.336 505.761 403.383 506.017 326.31C506.191 281.406 506.191 239.684 506.084 208.671C506.03 193.165 505.949 180.335 505.85 171.123C505.801 166.518 505.746 162.815 505.689 160.134C505.631 157.468 505.57 155.783 505.502 155.239ZM453.618 52.7555L453.374 53.1035C453.374 53.1036 453.374 53.1037 453.374 53.1039L453.618 52.7555Z" fill="#121212" stroke="black" stroke-width="0.850488"/>
<path d="M202.534 461.935V453.835L231.221 447.085V219.619L202.534 213.038V204.939H305.974C323.411 204.939 338.823 207.751 352.209 213.376C365.709 218.888 376.227 227.1 383.764 238.012C391.414 248.812 395.239 262.143 395.239 278.004C395.239 294.541 390.402 308.153 380.727 318.84C371.165 329.527 357.666 337.008 340.229 341.283L410.595 447.085L447.549 453.835V461.935H372.627L298.718 345.67H269.188V447.085L307.155 453.835V461.935H202.534ZM269.188 332.002H288.762C302.486 332.002 313.286 330.371 321.161 327.109C329.148 323.846 335.616 319.459 340.566 313.947C345.516 308.434 349.003 302.303 351.028 295.554C353.166 288.692 354.234 281.717 354.234 274.63C354.234 261.243 351.535 250.218 346.135 241.556C340.735 232.894 333.254 226.65 323.692 222.825C319.867 221.25 315.648 220.182 311.036 219.619C306.424 218.944 300.63 218.607 293.656 218.607H269.188V332.002Z" fill="#121212"/>
</svg>
