<svg width="134" height="12" viewBox="0 0 134 12" fill="none" xmlns="http://www.w3.org/2000/svg">
<path d="M3.47768 11.098C2.82435 11.098 2.23635 10.986 1.71368 10.762C1.19101 10.5287 0.780346 10.202 0.48168 9.782C0.183013 9.362 0.0336797 8.872 0.0336797 8.312H1.74168C1.77901 8.732 1.94235 9.07733 2.23168 9.348C2.53035 9.61867 2.94568 9.754 3.47768 9.754C4.02835 9.754 4.45768 9.62333 4.76568 9.362C5.07368 9.09133 5.22768 8.746 5.22768 8.326C5.22768 7.99933 5.12968 7.73333 4.93368 7.528C4.74701 7.32267 4.50901 7.164 4.21968 7.052C3.93968 6.94 3.54768 6.81867 3.04368 6.688C2.40901 6.52 1.89101 6.352 1.48968 6.184C1.09768 6.00667 0.76168 5.736 0.48168 5.372C0.20168 5.008 0.0616797 4.52267 0.0616797 3.916C0.0616797 3.356 0.20168 2.866 0.48168 2.446C0.76168 2.026 1.15368 1.704 1.65768 1.48C2.16168 1.256 2.74501 1.144 3.40768 1.144C4.35035 1.144 5.12035 1.382 5.71768 1.858C6.32435 2.32467 6.66035 2.96867 6.72568 3.79H4.96168C4.93368 3.43533 4.76568 3.132 4.45768 2.88C4.14968 2.628 3.74368 2.502 3.23968 2.502C2.78235 2.502 2.40901 2.61867 2.11968 2.852C1.83035 3.08533 1.68568 3.42133 1.68568 3.86C1.68568 4.15867 1.77435 4.406 1.95168 4.602C2.13835 4.78867 2.37168 4.938 2.65168 5.05C2.93168 5.162 3.31435 5.28333 3.79968 5.414C4.44368 5.59133 4.96635 5.76867 5.36768 5.946C5.77835 6.12333 6.12368 6.39867 6.40368 6.772C6.69301 7.136 6.83768 7.626 6.83768 8.242C6.83768 8.73667 6.70235 9.20333 6.43168 9.642C6.17035 10.0807 5.78301 10.4353 5.26968 10.706C4.76568 10.9673 4.16835 11.098 3.47768 11.098ZM8.1889 7.108C8.1889 6.33333 8.34757 5.64733 8.6649 5.05C8.99157 4.45267 9.43023 3.99067 9.9809 3.664C10.5409 3.328 11.1569 3.16 11.8289 3.16C12.4356 3.16 12.9629 3.28133 13.4109 3.524C13.8682 3.75733 14.2322 4.05133 14.5029 4.406V3.286H16.1129V11H14.5029V9.852C14.2322 10.216 13.8636 10.5193 13.3969 10.762C12.9302 11.0047 12.3982 11.126 11.8009 11.126C11.1382 11.126 10.5316 10.958 9.9809 10.622C9.43023 10.2767 8.99157 9.80067 8.6649 9.194C8.34757 8.578 8.1889 7.88267 8.1889 7.108ZM14.5029 7.136C14.5029 6.604 14.3909 6.142 14.1669 5.75C13.9522 5.358 13.6676 5.05933 13.3129 4.854C12.9582 4.64867 12.5756 4.546 12.1649 4.546C11.7542 4.546 11.3716 4.64867 11.0169 4.854C10.6622 5.05 10.3729 5.344 10.1489 5.736C9.93423 6.11867 9.8269 6.576 9.8269 7.108C9.8269 7.64 9.93423 8.10667 10.1489 8.508C10.3729 8.90933 10.6622 9.21733 11.0169 9.432C11.3809 9.63733 11.7636 9.74 12.1649 9.74C12.5756 9.74 12.9582 9.63733 13.3129 9.432C13.6676 9.22667 13.9522 8.928 14.1669 8.536C14.3909 8.13467 14.5029 7.668 14.5029 7.136ZM19.8052 0.64V11H18.2092V0.64H19.8052ZM21.3686 7.108C21.3686 6.33333 21.5273 5.64733 21.8446 5.05C22.1713 4.45267 22.6099 3.99067 23.1606 3.664C23.7206 3.328 24.3366 3.16 25.0086 3.16C25.6153 3.16 26.1426 3.28133 26.5906 3.524C27.0479 3.75733 27.4119 4.05133 27.6826 4.406V3.286H29.2926V11H27.6826V9.852C27.4119 10.216 27.0433 10.5193 26.5766 10.762C26.1099 11.0047 25.5779 11.126 24.9806 11.126C24.3179 11.126 23.7113 10.958 23.1606 10.622C22.6099 10.2767 22.1713 9.80067 21.8446 9.194C21.5273 8.578 21.3686 7.88267 21.3686 7.108ZM27.6826 7.136C27.6826 6.604 27.5706 6.142 27.3466 5.75C27.1319 5.358 26.8473 5.05933 26.4926 4.854C26.1379 4.64867 25.7553 4.546 25.3446 4.546C24.9339 4.546 24.5513 4.64867 24.1966 4.854C23.8419 5.05 23.5526 5.344 23.3286 5.736C23.1139 6.11867 23.0066 6.576 23.0066 7.108C23.0066 7.64 23.1139 8.10667 23.3286 8.508C23.5526 8.90933 23.8419 9.21733 24.1966 9.432C24.5606 9.63733 24.9433 9.74 25.3446 9.74C25.7553 9.74 26.1379 9.63733 26.4926 9.432C26.8473 9.22667 27.1319 8.928 27.3466 8.536C27.5706 8.13467 27.6826 7.668 27.6826 7.136ZM30.8569 7.108C30.8569 6.33333 31.0155 5.64733 31.3329 5.05C31.6595 4.45267 32.0982 3.99067 32.6489 3.664C33.2089 3.328 33.8295 3.16 34.5109 3.16C35.0149 3.16 35.5095 3.272 35.9949 3.496C36.4895 3.71067 36.8815 4 37.1709 4.364V0.64H38.7809V11H37.1709V9.838C36.9095 10.2113 36.5455 10.5193 36.0789 10.762C35.6215 11.0047 35.0942 11.126 34.4969 11.126C33.8249 11.126 33.2089 10.958 32.6489 10.622C32.0982 10.2767 31.6595 9.80067 31.3329 9.194C31.0155 8.578 30.8569 7.88267 30.8569 7.108ZM37.1709 7.136C37.1709 6.604 37.0589 6.142 36.8349 5.75C36.6202 5.358 36.3355 5.05933 35.9809 4.854C35.6262 4.64867 35.2435 4.546 34.8329 4.546C34.4222 4.546 34.0395 4.64867 33.6849 4.854C33.3302 5.05 33.0409 5.344 32.8169 5.736C32.6022 6.11867 32.4949 6.576 32.4949 7.108C32.4949 7.64 32.6022 8.10667 32.8169 8.508C33.0409 8.90933 33.3302 9.21733 33.6849 9.432C34.0489 9.63733 34.4315 9.74 34.8329 9.74C35.2435 9.74 35.6262 9.63733 35.9809 9.432C36.3355 9.22667 36.6202 8.928 36.8349 8.536C37.0589 8.13467 37.1709 7.668 37.1709 7.136ZM40.3451 7.108C40.3451 6.33333 40.5038 5.64733 40.8211 5.05C41.1478 4.45267 41.5865 3.99067 42.1371 3.664C42.6971 3.328 43.3131 3.16 43.9851 3.16C44.5918 3.16 45.1191 3.28133 45.5671 3.524C46.0245 3.75733 46.3885 4.05133 46.6591 4.406V3.286H48.2691V11H46.6591V9.852C46.3885 10.216 46.0198 10.5193 45.5531 10.762C45.0865 11.0047 44.5545 11.126 43.9571 11.126C43.2945 11.126 42.6878 10.958 42.1371 10.622C41.5865 10.2767 41.1478 9.80067 40.8211 9.194C40.5038 8.578 40.3451 7.88267 40.3451 7.108ZM46.6591 7.136C46.6591 6.604 46.5471 6.142 46.3231 5.75C46.1085 5.358 45.8238 5.05933 45.4691 4.854C45.1145 4.64867 44.7318 4.546 44.3211 4.546C43.9105 4.546 43.5278 4.64867 43.1731 4.854C42.8185 5.05 42.5291 5.344 42.3051 5.736C42.0905 6.11867 41.9831 6.576 41.9831 7.108C41.9831 7.64 42.0905 8.10667 42.3051 8.508C42.5291 8.90933 42.8185 9.21733 43.1731 9.432C43.5371 9.63733 43.9198 9.74 44.3211 9.74C44.7318 9.74 45.1145 9.63733 45.4691 9.432C45.8238 9.22667 46.1085 8.928 46.3231 8.536C46.5471 8.13467 46.6591 7.668 46.6591 7.136ZM59.0561 11L56.8161 7.108H55.5981V11H54.0021V1.27H57.3621C58.1088 1.27 58.7388 1.40067 59.2521 1.662C59.7748 1.92333 60.1621 2.27333 60.4141 2.712C60.6755 3.15067 60.8061 3.64067 60.8061 4.182C60.8061 4.81667 60.6195 5.39533 60.2461 5.918C59.8821 6.43133 59.3175 6.78133 58.5521 6.968L60.9601 11H59.0561ZM55.5981 5.834H57.3621C57.9595 5.834 58.4075 5.68467 58.7061 5.386C59.0141 5.08733 59.1681 4.686 59.1681 4.182C59.1681 3.678 59.0188 3.286 58.7201 3.006C58.4215 2.71667 57.9688 2.572 57.3621 2.572H55.5981V5.834ZM62.3159 7.108C62.3159 6.33333 62.4745 5.64733 62.7919 5.05C63.1185 4.45267 63.5572 3.99067 64.1079 3.664C64.6679 3.328 65.2839 3.16 65.9559 3.16C66.5625 3.16 67.0899 3.28133 67.5379 3.524C67.9952 3.75733 68.3592 4.05133 68.6299 4.406V3.286H70.2399V11H68.6299V9.852C68.3592 10.216 67.9905 10.5193 67.5239 10.762C67.0572 11.0047 66.5252 11.126 65.9279 11.126C65.2652 11.126 64.6585 10.958 64.1079 10.622C63.5572 10.2767 63.1185 9.80067 62.7919 9.194C62.4745 8.578 62.3159 7.88267 62.3159 7.108ZM68.6299 7.136C68.6299 6.604 68.5179 6.142 68.2939 5.75C68.0792 5.358 67.7945 5.05933 67.4399 4.854C67.0852 4.64867 66.7025 4.546 66.2919 4.546C65.8812 4.546 65.4985 4.64867 65.1439 4.854C64.7892 5.05 64.4999 5.344 64.2759 5.736C64.0612 6.11867 63.9539 6.576 63.9539 7.108C63.9539 7.64 64.0612 8.10667 64.2759 8.508C64.4999 8.90933 64.7892 9.21733 65.1439 9.432C65.5079 9.63733 65.8905 9.74 66.2919 9.74C66.7025 9.74 67.0852 9.63733 67.4399 9.432C67.7945 9.22667 68.0792 8.928 68.2939 8.536C68.5179 8.13467 68.6299 7.668 68.6299 7.136ZM75.3181 9.572L77.5021 3.286H79.1961L76.2561 11H74.3521L71.4261 3.286H73.1341L75.3181 9.572ZM79.8705 7.108C79.8705 6.33333 80.0292 5.64733 80.3465 5.05C80.6732 4.45267 81.1119 3.99067 81.6625 3.664C82.2225 3.328 82.8385 3.16 83.5105 3.16C84.1172 3.16 84.6445 3.28133 85.0925 3.524C85.5499 3.75733 85.9139 4.05133 86.1845 4.406V3.286H87.7945V11H86.1845V9.852C85.9139 10.216 85.5452 10.5193 85.0785 10.762C84.6119 11.0047 84.0799 11.126 83.4825 11.126C82.8199 11.126 82.2132 10.958 81.6625 10.622C81.1119 10.2767 80.6732 9.80067 80.3465 9.194C80.0292 8.578 79.8705 7.88267 79.8705 7.108ZM86.1845 7.136C86.1845 6.604 86.0725 6.142 85.8485 5.75C85.6339 5.358 85.3492 5.05933 84.9945 4.854C84.6399 4.64867 84.2572 4.546 83.8465 4.546C83.4359 4.546 83.0532 4.64867 82.6985 4.854C82.3439 5.05 82.0545 5.344 81.8305 5.736C81.6159 6.11867 81.5085 6.576 81.5085 7.108C81.5085 7.64 81.6159 8.10667 81.8305 8.508C82.0545 8.90933 82.3439 9.21733 82.6985 9.432C83.0625 9.63733 83.4452 9.74 83.8465 9.74C84.2572 9.74 84.6399 9.63733 84.9945 9.432C85.3492 9.22667 85.6339 8.928 85.8485 8.536C86.0725 8.13467 86.1845 7.668 86.1845 7.136ZM93.7828 3.16C94.3895 3.16 94.9308 3.286 95.4068 3.538C95.8922 3.79 96.2702 4.16333 96.5408 4.658C96.8115 5.15267 96.9468 5.75 96.9468 6.45V11H95.3648V6.688C95.3648 5.99733 95.1922 5.47 94.8468 5.106C94.5015 4.73267 94.0302 4.546 93.4328 4.546C92.8355 4.546 92.3595 4.73267 92.0048 5.106C91.6595 5.47 91.4868 5.99733 91.4868 6.688V11H89.8908V3.286H91.4868V4.168C91.7482 3.85067 92.0795 3.60333 92.4808 3.426C92.8915 3.24867 93.3255 3.16 93.7828 3.16ZM106.053 6.954C106.053 7.24333 106.034 7.50467 105.997 7.738H100.103C100.149 8.354 100.378 8.84867 100.789 9.222C101.199 9.59533 101.703 9.782 102.301 9.782C103.159 9.782 103.766 9.42267 104.121 8.704H105.843C105.609 9.41333 105.185 9.99667 104.569 10.454C103.962 10.902 103.206 11.126 102.301 11.126C101.563 11.126 100.901 10.9627 100.313 10.636C99.734 10.3 99.2766 9.83333 98.9406 9.236C98.614 8.62933 98.4506 7.92933 98.4506 7.136C98.4506 6.34267 98.6093 5.64733 98.9266 5.05C99.2533 4.44333 99.706 3.97667 100.285 3.65C100.873 3.32333 101.545 3.16 102.301 3.16C103.029 3.16 103.677 3.31867 104.247 3.636C104.816 3.95333 105.259 4.40133 105.577 4.98C105.894 5.54933 106.053 6.20733 106.053 6.954ZM104.387 6.45C104.377 5.862 104.167 5.39067 103.757 5.036C103.346 4.68133 102.837 4.504 102.231 4.504C101.68 4.504 101.209 4.68133 100.817 5.036C100.425 5.38133 100.191 5.85267 100.117 6.45H104.387ZM109.219 0.64V11H107.623V0.64H109.219ZM112.911 0.64V11H111.315V0.64H112.911ZM118.352 11.126C117.624 11.126 116.966 10.9627 116.378 10.636C115.79 10.3 115.328 9.83333 114.992 9.236C114.656 8.62933 114.488 7.92933 114.488 7.136C114.488 6.352 114.661 5.65667 115.006 5.05C115.351 4.44333 115.823 3.97667 116.42 3.65C117.017 3.32333 117.685 3.16 118.422 3.16C119.159 3.16 119.827 3.32333 120.424 3.65C121.021 3.97667 121.493 4.44333 121.838 5.05C122.183 5.65667 122.356 6.352 122.356 7.136C122.356 7.92 122.179 8.61533 121.824 9.222C121.469 9.82867 120.984 10.3 120.368 10.636C119.761 10.9627 119.089 11.126 118.352 11.126ZM118.352 9.74C118.763 9.74 119.145 9.642 119.5 9.446C119.864 9.25 120.158 8.956 120.382 8.564C120.606 8.172 120.718 7.696 120.718 7.136C120.718 6.576 120.611 6.10467 120.396 5.722C120.181 5.33 119.897 5.036 119.542 4.84C119.187 4.644 118.805 4.546 118.394 4.546C117.983 4.546 117.601 4.644 117.246 4.84C116.901 5.036 116.625 5.33 116.42 5.722C116.215 6.10467 116.112 6.576 116.112 7.136C116.112 7.96667 116.322 8.61067 116.742 9.068C117.171 9.516 117.708 9.74 118.352 9.74ZM128.089 2.768H130.105L133.325 5.946L130.105 9.124H128.089L131.323 5.946L128.089 2.768Z" fill="#E1E1E6"/>
</svg>
